<?xml version="1.0"?>
<svg xmlns="http://www.w3.org/2000/svg" xmlns:xlink="http://www.w3.org/1999/xlink" version="1.1" id="Layer_1" x="0px" y="0px" viewBox="0 0 501.551 501.551" style="enable-background:new 0 0 501.551 501.551;" xml:space="preserve" width="512px" height="512px" class=""><g><rect x="87.771" y="196.441" style="fill:#40596B" width="326.008" height="221.518" data-original="#40596B" class=""/><polygon style="fill:#EFC231" points="250.776,0 0,99.265 0,196.441 501.551,196.441 501.551,99.265 " data-original="#F2F2F2" class="active-path" data-old_color="#EEC131"/><rect y="459.755" style="fill:#AA8926" width="501.551" height="41.796" data-original="#ACB3BA" class="" data-old_color="#AC8A26"/><rect x="22.988" y="416.914" style="fill:#2C3E50" width="454.531" height="41.796" data-original="#CDD6E0" class="" data-old_color="#CDD6E0"/><g>
	<rect x="380.343" y="196.441" style="fill:#AA8926" width="67.918" height="35.527" data-original="#ACB3BA" class="" data-old_color="#AC8A26"/>
	<rect x="380.343" y="382.433" style="fill:#AA8926" width="67.918" height="35.527" data-original="#ACB3BA" class="" data-old_color="#AC8A26"/>
</g><rect x="387.657" y="230.922" style="fill:#EFC231" width="51.2" height="150.465" data-original="#F2F2F2" class="active-path" data-old_color="#EEC131"/><g>
	<rect x="270.629" y="196.441" style="fill:#AA8926" width="67.918" height="35.527" data-original="#ACB3BA" class="" data-old_color="#AC8A26"/>
	<rect x="270.629" y="382.433" style="fill:#AA8926" width="67.918" height="35.527" data-original="#ACB3BA" class="" data-old_color="#AC8A26"/>
</g><rect x="277.943" y="230.922" style="fill:#EFC231" width="51.2" height="150.465" data-original="#F2F2F2" class="active-path" data-old_color="#EEC131"/><g>
	<rect x="54.335" y="196.441" style="fill:#AA8926" width="67.918" height="35.527" data-original="#ACB3BA" class="" data-old_color="#AC8A26"/>
	<rect x="54.335" y="382.433" style="fill:#AA8926" width="67.918" height="35.527" data-original="#ACB3BA" class="" data-old_color="#AC8A26"/>
</g><rect x="61.649" y="230.922" style="fill:#EFC231" width="51.2" height="150.465" data-original="#F2F2F2" class="active-path" data-old_color="#EEC131"/><g>
	<rect x="163.004" y="196.441" style="fill:#AA8926" width="67.918" height="35.527" data-original="#ACB3BA" class="" data-old_color="#AC8A26"/>
	<rect x="163.004" y="382.433" style="fill:#AA8926" width="67.918" height="35.527" data-original="#ACB3BA" class="" data-old_color="#AC8A26"/>
</g><rect x="171.363" y="230.922" style="fill:#EFC231" width="51.2" height="150.465" data-original="#F2F2F2" class="active-path" data-old_color="#EEC131"/><g>
	<rect x="54.335" y="196.441" style="fill:#132A39" width="67.918" height="12.539" data-original="#A0ABB5" class="" data-old_color="#142C3B"/>
	<rect x="163.004" y="196.441" style="fill:#132A39" width="67.918" height="12.539" data-original="#A0ABB5" class="" data-old_color="#142C3B"/>
	<rect x="270.629" y="196.441" style="fill:#132A39" width="67.918" height="12.539" data-original="#A0ABB5" class="" data-old_color="#142C3B"/>
	<rect x="380.343" y="196.441" style="fill:#132A39" width="67.918" height="12.539" data-original="#A0ABB5" class="" data-old_color="#142C3B"/>
</g><circle style="fill:#AA8926" cx="250.776" cy="114.939" r="41.796" data-original="#ACB3BA" class="" data-old_color="#AC8A26"/></g> </svg>
