<?xml version="1.0"?>
<svg xmlns="http://www.w3.org/2000/svg" xmlns:xlink="http://www.w3.org/1999/xlink" version="1.1" id="Capa_1" x="0px" y="0px" viewBox="0 0 512 512" style="enable-background:new 0 0 512 512;" xml:space="preserve" width="512px" height="512px" class=""><g><path style="fill:#FFAE39;" d="M256,0c-68.925,0-125,56.075-125,125s56.075,125,125,125s125-56.075,125-125S324.925,0,256,0z" data-original="#FFAE39" class=""/><path style="fill:#2C3E50" d="M460.311,492.504L413.51,343.522C403.641,312.107,374.887,291,341.958,291h-39.285  c-3.978,0-7.793,1.581-10.606,4.394L256,331.459l-36.066-36.066c-2.813-2.813-6.628-4.394-10.606-4.394h-39.285  c-32.929,0-61.684,21.107-71.552,52.522L51.689,492.504c-1.431,4.556-0.607,9.522,2.219,13.372S61.224,512,66,512h380  c4.776,0,9.266-2.274,12.092-6.124C460.918,502.026,461.742,497.061,460.311,492.504z" data-original="#00A5E8" class="" data-old_color="#183B4D"/><path style="fill:#FC9D26;" d="M256,0v250c68.925,0,125-56.075,125-125S324.925,0,256,0z" data-original="#FC9D26" class=""/><path style="fill:#52667E" d="M460.311,492.504L413.51,343.522C403.641,312.107,374.887,291,341.958,291h-39.285  c-3.978,0-7.793,1.581-10.606,4.394L256,331.459V512h190c4.776,0,9.266-2.274,12.092-6.124  C460.918,502.026,461.742,497.061,460.311,492.504z" data-original="#0096DC" class="active-path" data-old_color="#52657C"/><path style="fill:#FAD557" d="M361,431h-60c-8.284,0-15-6.716-15-15s6.716-15,15-15h60c8.284,0,15,6.716,15,15S369.284,431,361,431  z" data-original="#FAD557" class=""/></g> </svg>
