<?xml version="1.0" encoding="iso-8859-1"?>
<!-- Generator: Adobe Illustrator 19.0.0, SVG Export Plug-In . SVG Version: 6.00 Build 0)  -->
<svg version="1.1" id="Capa_1" xmlns="http://www.w3.org/2000/svg" xmlns:xlink="http://www.w3.org/1999/xlink" x="0px" y="0px"
	 viewBox="0 0 512 512" style="enable-background:new 0 0 512 512;" xml:space="preserve">
<path style="fill:#FEA832;" d="M360,75.001v361c0,8.399-6.599,15-15,15H180v-391h165C353.401,60.001,360,66.6,360,75.001z"/>
<path style="fill:#FE9923;" d="M360,256.001v180c0,8.399-6.599,15-15,15H180v-195H360z"/>
<path style="fill:#994C0F;" d="M210,15.001v482c0,10.499-10.201,17.399-19.799,14.099l-180-61C4.2,448.3,0,442.6,0,436.001v-361
	C0,68.4,4.2,62.7,10.201,60.9l180-60C199.501-2.4,210,4.5,210,15.001z"/>
<path style="fill:#713708;" d="M210,256.001v241c0,10.499-10.201,17.399-19.799,14.099l-180-61C4.2,448.3,0,442.6,0,436.001v-180
	H210z"/>
<path style="fill:#FEA832;" d="M150,256.001c0,8.399-6.599,15-15,15s-15-6.601-15-15c0-8.401,6.599-15,15-15S150,247.6,150,256.001z
	"/>
<path style="fill:#FE9923;" d="M150,256.001c0,8.399-6.599,15-15,15s-15-6.601-15-15H150z"/>
<path style="fill:#FD003A;" d="M512,241.001v30c0,8.399-6.599,15-15,15H375v45c0,12.299-14.399,19.499-24.3,11.7l-87.299-73.2
	c-5.402-2.701-8.401-8.101-8.401-13.5c0-5.399,2.999-10.8,8.401-13.5l87.299-73.2c9.901-7.8,24.3-0.601,24.3,11.7v45h122
	C505.401,226.001,512,232.6,512,241.001z"/>
<path style="fill:#E50027;" d="M512,256.001v15c0,8.399-6.599,15-15,15H375v45c0,12.299-14.399,19.499-24.3,11.7l-87.299-73.2
	c-5.402-2.701-8.401-8.101-8.401-13.5L512,256.001L512,256.001z"/>
<g>
</g>
<g>
</g>
<g>
</g>
<g>
</g>
<g>
</g>
<g>
</g>
<g>
</g>
<g>
</g>
<g>
</g>
<g>
</g>
<g>
</g>
<g>
</g>
<g>
</g>
<g>
</g>
<g>
</g>
</svg>
