<?xml version="1.0" encoding="iso-8859-1"?>
<!-- Generator: Adobe Illustrator 19.0.0, SVG Export Plug-In . SVG Version: 6.00 Build 0)  -->
<svg version="1.1" id="Capa_1" xmlns="http://www.w3.org/2000/svg" xmlns:xlink="http://www.w3.org/1999/xlink" x="0px" y="0px"
	 viewBox="0 0 511.937 511.937" style="enable-background:new 0 0 511.937 511.937;" xml:space="preserve">
<g>
	<path style="fill:#40596B;" d="M185.567,436.267c-21.333-6.4-25.6-45.867-43.733-58.667c-11.733-8.533-32-8.533-48-11.733
		l-6.4,10.667l-38.4,64c-4.267,6.4,2.133,14.933,9.6,13.867l60.8-13.867c4.267-1.067,9.6,2.133,10.667,6.4l17.067,58.667
		c2.133,7.467,12.8,8.533,16,2.133L199.434,448l8.533-14.933C200.5,436.267,193.034,438.4,185.567,436.267z"/>
	<path style="fill:#40596B;" d="M418.1,365.867c-16,3.2-37.333,3.2-48,11.733c-18.133,12.8-22.4,52.267-43.733,58.667
		c-6.4,2.133-14.933,0-22.4-3.2L312.5,448l36.267,59.733c4.267,6.4,13.867,5.333,16-2.133l17.067-58.667
		c1.067-4.267,6.4-7.467,10.667-6.4l60.8,13.867c7.467,2.133,13.867-6.4,9.6-13.867l-38.4-64L418.1,365.867z"/>
</g>
<path style="fill:#334A5E;" d="M424.5,376.533c-6.4,2.133-13.867,2.133-20.267,3.2c-10.667,1.067-21.333,3.2-27.733,6.4
	C371.167,390.4,365.834,400,361.567,409.6c-7.467,14.933-16,32-32,37.333c-3.2,1.067-6.4,1.067-9.6,1.067
	c-2.133,0-4.267,0-7.467-1.067l-56.533-92.8L199.434,448c-2.133,0-4.267,1.067-7.467,1.067s-6.4,0-9.6-1.067
	c-17.067-5.333-24.533-22.4-32-37.333c-4.267-9.6-9.6-19.2-14.933-23.467c-5.333-4.267-17.067-5.333-27.733-6.4
	c-6.4-1.067-13.867-2.133-20.267-3.2l65.067-107.733l103.467,60.8l103.467-60.8L424.5,376.533z"/>
<path style="fill:#FF7058;" d="M483.167,222.933c0-10.667-8.533-20.267-18.133-28.8c6.4-11.733,11.733-22.4,9.6-32
	c-3.2-12.8-19.2-19.2-34.133-27.733c3.2-16,6.4-32-1.067-42.667c-6.4-8.533-18.133-10.667-32-12.8c-1.067-12.8-3.2-25.6-11.733-32
	c-10.667-7.467-26.667-4.267-43.733-2.133c-7.467-14.933-13.867-29.867-26.667-34.133c-9.6-3.2-21.333,2.133-33.067,8.533
	C283.7,9.6,274.1,0,263.434,0c-13.867,0-25.6,11.733-37.333,23.467c-14.933-7.467-28.8-16-41.6-12.8
	c-10.667,3.2-17.067,13.867-22.4,25.6c-12.8-3.2-25.6-4.267-34.133,1.067c-10.667,7.467-12.8,23.467-16,39.467
	c-14.933,3.2-32,4.267-40.533,14.933c-6.4,8.533-5.333,20.267-2.133,33.067c-11.733,5.333-23.467,11.733-26.667,21.333
	c-4.267,12.8,3.2,26.667,10.667,41.6c-11.733,10.667-24.533,22.4-24.533,35.2c0,10.667,8.533,20.267,18.133,28.8
	c-6.4,11.733-11.733,22.4-9.6,32c3.2,12.8,19.2,19.2,34.133,27.733c-3.2,16-6.4,32,1.067,42.667c6.4,8.533,18.133,10.667,32,12.8
	c1.067,12.8,3.2,25.6,11.733,32c10.667,7.467,26.667,4.267,43.733,2.133c7.467,14.933,13.867,29.867,26.667,34.133
	c9.6,3.2,21.333-2.133,33.067-8.533c8.533,9.6,18.133,19.2,28.8,19.2c13.867,0,25.6-11.733,37.333-23.467
	c14.933,7.467,28.8,16,41.6,12.8c10.667-3.2,17.067-13.867,22.4-25.6c12.8,3.2,25.6,4.267,34.133-1.067
	c10.667-7.467,12.8-23.467,16-39.467c16-2.133,33.067-3.2,41.6-13.867c6.4-8.533,5.333-20.267,2.133-33.067
	c11.733-5.333,23.467-11.733,26.667-21.333c4.267-12.8-3.2-26.667-10.667-41.6C471.434,247.467,483.167,236.8,483.167,222.933z"/>
<path style="fill:#FFD15C;" d="M392.5,222.933c0,71.467-57.6,131.2-130.133,134.4c-2.133,0-4.267,0-6.4,0
	c-74.667,0-134.4-58.667-136.533-131.2v-1.067c0-1.067,0-2.133,0-2.133c0-73.6,60.8-133.333,136.533-133.333
	S392.5,149.333,392.5,222.933z"/>
<path style="fill:#F8B64C;" d="M131.167,236.8L131.167,236.8c0-1.067,0-2.133,0-3.2c-1.067-73.6,60.8-133.333,135.467-133.333
	c35.2,0,66.133,12.8,90.667,34.133c-24.533-27.733-60.8-44.8-101.333-44.8c-75.733,0-136.533,59.733-136.533,134.4
	c0,1.067,0,2.133,0,2.133v1.067c1.067,38.4,18.133,72.533,45.867,97.067C143.967,299.733,131.167,269.867,131.167,236.8z"/>
<polygon style="fill:#FFFFFF;" points="255.967,126.933 278.367,194.133 349.834,194.133 291.167,235.733 313.567,301.867 
	255.967,261.333 198.367,301.867 219.7,235.733 162.1,194.133 233.567,194.133 "/>
<g>
</g>
<g>
</g>
<g>
</g>
<g>
</g>
<g>
</g>
<g>
</g>
<g>
</g>
<g>
</g>
<g>
</g>
<g>
</g>
<g>
</g>
<g>
</g>
<g>
</g>
<g>
</g>
<g>
</g>
</svg>
