<svg width="64" height="64" version="1.1" viewBox="0 0 16.933 16.933" xmlns="http://www.w3.org/2000/svg">
 <g transform="rotate(-90 -131.57 148.5)" fill="#2c3e50" shape-rendering="auto" stroke-linecap="round" stroke-linejoin="round" stroke-width=".71438">
  <g fill="#2c3e50">
   <path d="m8.4668 286.15c1.3109 0 2.3809 1.0699 2.3809 2.3809s-1.0699 2.3828-2.3809 2.3828c-1.3109 0-2.3809-1.0719-2.3809-2.3828 1e-7 -1.3109 1.0699-2.3809 2.3809-2.3809zm0 0.71484c-0.92484 0-1.668 0.74118-1.668 1.666 1e-7 0.92484 0.74313 1.668 1.668 1.668s1.666-0.74313 1.666-1.668-0.74118-1.666-1.666-1.666z" color="#000000" color-rendering="auto" dominant-baseline="auto" image-rendering="auto" solid-color="#000000" style="font-feature-settings:normal;font-variant-alternates:normal;font-variant-caps:normal;font-variant-ligatures:normal;font-variant-numeric:normal;font-variant-position:normal;isolation:auto;mix-blend-mode:normal;paint-order:stroke fill markers;shape-padding:0;text-decoration-color:#000000;text-decoration-line:none;text-decoration-style:solid;text-indent:0;text-orientation:mixed;text-transform:none;white-space:normal"/>
   <path d="m8.4668 280.6c1.3109 0 2.3809 1.0699 2.3809 2.3809s-1.0699 2.3809-2.3809 2.3809-2.3809-1.0699-2.3809-2.3809 1.0699-2.3809 2.3809-2.3809zm0 0.71289c-0.92484 0-1.668 0.74313-1.668 1.668s0.74313 1.666 1.668 1.666 1.666-0.74117 1.666-1.666-0.74118-1.668-1.666-1.668z" color="#000000" color-rendering="auto" dominant-baseline="auto" image-rendering="auto" solid-color="#000000" style="font-feature-settings:normal;font-variant-alternates:normal;font-variant-caps:normal;font-variant-ligatures:normal;font-variant-numeric:normal;font-variant-position:normal;isolation:auto;mix-blend-mode:normal;paint-order:stroke fill markers;shape-padding:0;text-decoration-color:#000000;text-decoration-line:none;text-decoration-style:solid;text-indent:0;text-orientation:mixed;text-transform:none;white-space:normal"/>
   <path d="m8.4668 291.71c1.3109 0 2.3809 1.0699 2.3809 2.3809s-1.0699 2.3809-2.3809 2.3809c-1.3109 0-2.3809-1.0699-2.3809-2.3809 1e-7 -1.3109 1.0699-2.3809 2.3809-2.3809zm0 0.71485c-0.92484 0-1.668 0.74117-1.668 1.666 1e-7 0.92484 0.74313 1.668 1.668 1.668s1.666-0.74313 1.666-1.668-0.74118-1.666-1.666-1.666z" color="#000000" color-rendering="auto" dominant-baseline="auto" image-rendering="auto" solid-color="#000000" style="font-feature-settings:normal;font-variant-alternates:normal;font-variant-caps:normal;font-variant-ligatures:normal;font-variant-numeric:normal;font-variant-position:normal;isolation:auto;mix-blend-mode:normal;paint-order:stroke fill markers;shape-padding:0;text-decoration-color:#000000;text-decoration-line:none;text-decoration-style:solid;text-indent:0;text-orientation:mixed;text-transform:none;white-space:normal"/>
  </g>
 </g>
</svg>
