<svg width="64" height="64" enable-background="new" version="1.1" viewBox="0 0 64 64" xmlns="http://www.w3.org/2000/svg" xmlns:osb="http://www.openswatchbook.org/uri/2009/osb" xmlns:xlink="http://www.w3.org/1999/xlink">
 <defs>
  <linearGradient x1="-.65984" x2="40.66" y1="31.973" y2="31.973" gradientUnits="userSpaceOnUse">
   <stop stop-color="#459b45" offset="0"/>
  </linearGradient>
 </defs>
 <g transform="translate(0 .053001)">
  <g transform="matrix(1.0294 0 0 1.0363 -.90138 -2.0094)" stroke-width=".9682"/>
 </g>
 <g transform="translate(0 .053001)">
  <path d="m12.396 0.16899a3.1453 3.2652 0 0 0-3.1453 3.2649 3.1453 3.2652 0 0 0 0.00434 0.13231h-0.014686v6.0558h-5.8082v0.015068a3.194 3.2155 0 0 0-0.12947-0.00413 3.194 3.2155 0 0 0-3.1936 3.2155 3.194 3.2155 0 0 0 3.1936 3.2155 3.194 3.2155 0 0 0 0.20805-0.01084h5.7296v5.3382a3.1453 3.2652 0 0 0-0.010224 0.21269 3.1453 3.2652 0 0 0 3.1453 3.2649 3.1453 3.2652 0 0 0 3.1453-3.2649 3.1453 3.2652 0 0 0-0.0043-0.13231h0.01452v-5.4186h5.4167v-0.01486a3.194 3.2155 0 0 0 0.12947 0.0042 3.194 3.2155 0 0 0 3.1936-3.2155 3.194 3.2155 0 0 0-3.1936-3.2155 3.194 3.2155 0 0 0-0.20804 0.010854h-5.3379v-5.9757a3.1453 3.2652 0 0 0 0.011721-0.21269 3.1453 3.2652 0 0 0-3.1453-3.2649z" fill="#204a87"/>
 </g>
 <g transform="translate(0 .053001)">
  <path d="m60.077 15.94h-4.1455c-0.56705-2.9313-1.7643-5.6141-3.4155-7.9197h7.561c2.0808 0 3.7678-1.772 3.7678-3.9598 0-2.1868-1.687-3.9598-3.7678-3.9598h-30.142c-2.0808 0-3.7678 1.773-3.7678 3.9598 0 2.1878 1.687 3.9598 3.7678 3.9598h7.5356c4.9198 0 9.0927 3.3094 10.647 7.9197h-18.182c-2.0808 0-3.7678 1.773-3.7678 3.9598 0 2.1878 1.687 3.9608 3.7678 3.9608h18.182c-1.5533 4.6103-5.728 7.9197-10.647 7.9197h-7.5356c-0.67255 0-1.2952 0.19997-1.8415 0.52468-0.01978 0.011-0.03956 0.01584-0.05841 0.02674-0.01224 0.0077-0.02073 0.01781-0.03392 0.02474-0.15071 0.09603-0.292 0.20393-0.42859 0.31976-0.07065 0.06039-0.14223 0.11681-0.20911 0.18215-0.08948 0.0881-0.16955 0.18413-0.25056 0.28016-0.08289 0.09901-0.16484 0.19502-0.23643 0.30194-0.06688 0.09801-0.1234 0.20195-0.18086 0.30689-0.05841 0.10494-0.1168 0.20888-0.16484 0.31877-0.06499 0.14453-0.11492 0.29699-0.16296 0.45142-0.01978 0.06534-0.04143 0.1287-0.05841 0.19502-0.08289 0.32966-0.14224 0.6702-0.14224 1.0266 0 1.1464 0.47098 2.171 1.2123 2.8956l14.519 22.862c1.0154 1.8255 3.2657 2.4511 5.0244 1.3968 1.7596-1.0543 2.3624-3.3886 1.347-5.2141l-11.418-17.98h0.61886c9.1143 0 16.714-6.802 18.461-15.839h4.1455c2.0808 0 3.7678-1.773 3.7678-3.9608 0-2.1868-1.687-3.9598-3.7678-3.9598z" clip-rule="evenodd" fill="#3465a4" fill-rule="evenodd"/>
 </g>
</svg>
