<svg enable-background="new 0 0 55 55" version="1.1" viewBox="0 0 55 55" xmlns="http://www.w3.org/2000/svg">
 <g fill="#f9bf3b" fill-opacity=".99524">
  <path d="m53.786 27.539c0-14.419-11.731-26.15-26.15-26.15-14.419 0-26.15 11.731-26.15 26.15 0 7.6158 3.2749 14.48 8.4878 19.264l-0.02473 0.02187 0.84821 0.71508c0.05516 0.0466 0.11506 0.08463 0.17021 0.13028 0.45073 0.37371 0.91763 0.7284 1.3931 1.0717 0.15405 0.11126 0.30809 0.22251 0.465 0.33092 0.50778 0.34993 1.0289 0.6818 1.5614 0.99655 0.11601 0.06846 0.23297 0.13503 0.34993 0.20159 0.58291 0.33187 1.1782 0.64472 1.7877 0.93189 0.04469 0.02092 0.09033 0.03994 0.13503 0.06086 1.9864 0.92333 4.107 1.6013 6.3245 2.0017 0.05801 0.01046 0.11601 0.02092 0.17497 0.03138 0.68846 0.11886 1.3845 0.21396 2.0891 0.27767 0.08559 0.0076 0.17116 0.01236 0.2577 0.01997 0.70177 0.05801 1.4112 0.09509 2.13 0.09509 0.71223 0 1.415-0.03708 2.1129-0.09319 0.08844-0.0076 0.17687-0.01236 0.2653-0.01997 0.69892-0.06371 1.3893-0.15595 2.0711-0.27291 0.05896-0.01046 0.11886-0.02092 0.17782-0.03234 2.1842-0.39178 4.2743-1.0546 6.2351-1.9541 0.07227-0.03328 0.14549-0.06466 0.21776-0.09889 0.58671-0.27576 1.1601-0.5734 1.7221-0.89005 0.13978-0.07892 0.27862-0.1588 0.41745-0.24058 0.51159-0.30144 1.0146-0.61619 1.5034-0.95091 0.17592-0.11982 0.34803-0.24629 0.52205-0.37181 0.41745-0.30049 0.82729-0.61048 1.2257-0.93474 0.08843-0.07131 0.18353-0.13313 0.27006-0.20635l0.87008-0.7265-0.02567-0.02187c5.2585-4.785 8.5648-11.681 8.5648-19.336zm-50.398 0c0-13.371 10.877-24.248 24.248-24.248 13.371 0 24.248 10.877 24.248 24.248 0 7.205-3.1618 13.683-8.1674 18.127-0.27957-0.19303-0.56104-0.3661-0.84916-0.51064l-8.0513-4.0252c-0.72269-0.36135-1.1715-1.0878-1.1715-1.8952v-2.8118c0.18638-0.23012 0.38322-0.49067 0.58671-0.77689 1.0422-1.472 1.878-3.1095 2.4876-4.8715 1.2048-0.57245 1.9826-1.7725 1.9826-3.1275v-3.371c0-0.82444-0.30239-1.6242-0.84346-2.2527v-4.4379c0.04945-0.49352 0.22442-3.2787-1.7906-5.5761-1.7525-2.0007-4.5891-3.0134-8.4317-3.0134-3.8426 0-6.6792 1.0127-8.4317 3.0125-2.015 2.2974-1.84 5.0826-1.7906 5.5761v4.4379c-0.54012 0.62855-0.84346 1.4283-0.84346 2.2527v3.371c0 1.047 0.46975 2.0235 1.2742 2.6825 0.77024 3.0172 2.3554 5.3013 2.9412 6.0754v2.7519c0 0.77594-0.42315 1.4891-1.105 1.8619l-7.5188 4.1013c-0.23963 0.13028-0.47736 0.28242-0.71508 0.45263-4.9438-4.4426-8.059-10.88-8.059-18.033zm38.473 19.619c-0.33282 0.24153-0.67134 0.47546-1.0146 0.69892-0.15785 0.1027-0.31475 0.2054-0.47546 0.30524-0.44883 0.27766-0.90526 0.54202-1.3712 0.78925-0.1027 0.0542-0.20635 0.10555-0.31 0.1588-1.0707 0.54867-2.1785 1.0203-3.3168 1.4035-0.03994 0.01332-0.07988 0.02758-0.12077 0.04089-0.59622 0.19779-1.2 0.37371-1.8105 0.5249-0.0019 0-0.0038 9.51e-4 -0.0057 9.51e-4 -0.61619 0.15214-1.24 0.27862-1.8676 0.38226-0.01712 0.0029-0.03423 0.0067-0.05135 0.0095-0.59051 0.09604-1.1858 0.16546-1.783 0.21776-0.10555 0.0095-0.2111 0.01617-0.3176 0.02378-0.59051 0.04469-1.1839 0.07322-1.7801 0.07322-0.60288 0-1.2038-0.02948-1.802-0.07418-0.10365-0.0076-0.2073-0.01426-0.31-0.02377-0.60288-0.05325-1.2029-0.12457-1.7972-0.22156-0.02663-0.0048-0.05325-0.0095-0.07988-0.01426-1.2571-0.21015-2.4942-0.5192-3.699-0.92333-0.03708-0.01236-0.07512-0.02567-0.11221-0.03804-0.59812-0.2035-1.1896-0.42886-1.7706-0.678-0.0038-0.0019-0.0086-0.0038-0.01236-0.0057-0.54963-0.23678-1.0888-0.49923-1.6213-0.77594-0.06942-0.03614-0.13978-0.07037-0.20825-0.10745-0.48592-0.2596-0.96137-0.54012-1.4302-0.833-0.13883-0.08748-0.27671-0.17592-0.41364-0.2653-0.43171-0.28242-0.85772-0.57625-1.2723-0.8872-0.04279-0.03234-0.08368-0.06657-0.12647-0.09889l0.09129-0.05135 7.5188-4.1013c1.2932-0.70557 2.0968-2.0587 2.0968-3.5317l-9.51e-4 -3.4252-0.21871-0.26435c-0.02091-0.02377-2.0768-2.5247-2.8537-5.9108l-0.08651-0.37656-0.32426-0.21015c-0.45739-0.29574-0.73125-0.79021-0.73125-1.3237v-3.371c0-0.44217 0.18733-0.85392 0.52966-1.163l0.3138-0.28337v-5.2966l-0.0086-0.12457c-0.0029-0.02282-0.28337-2.3098 1.3275-4.146 1.375-1.5671 3.7314-2.363 7.0015-2.363 3.2578 0 5.6066 0.78926 6.9854 2.3449 1.6089 1.8172 1.3455 4.1469 1.3436 4.1659l-0.0086 5.4211 0.3138 0.28337c0.34138 0.3081 0.52966 0.72079 0.52966 1.163v3.371c0 0.678-0.46119 1.2932-1.123 1.4977l-0.4726 0.14549-0.15214 0.4707c-0.56104 1.743-1.3598 3.3529-2.3735 4.785-0.24914 0.35184-0.49162 0.66373-0.69987 0.90241l-0.23583 0.26911v3.5174c0 1.5329 0.85201 2.9117 2.2232 3.5963l8.0513 4.0252c0.05135 0.02567 0.10175 0.0523 0.15214 0.07892-0.10175 0.07702-0.20635 0.14834-0.30904 0.22251z" fill="#f9bf3b" fill-opacity=".99524" stroke="#fde3a7" stroke-linecap="round" stroke-linejoin="round" stroke-opacity=".99048" stroke-width="2.7" style="paint-order:stroke fill markers"/>
 </g>
</svg>
