<?xml version="1.0" encoding="iso-8859-1"?>
<!-- Generator: Adobe Illustrator 19.0.0, SVG Export Plug-In . SVG Version: 6.00 Build 0)  -->
<svg version="1.1" id="Capa_1" xmlns="http://www.w3.org/2000/svg" xmlns:xlink="http://www.w3.org/1999/xlink" x="0px" y="0px"
	 viewBox="0 0 512 512" style="enable-background:new 0 0 512 512;" xml:space="preserve">
<path style="fill:#E0230D;" d="M183.887,0v398.68c22.757,0,41.207-18.451,41.207-41.207V41.207C225.095,18.451,206.644,0,183.887,0z
	"/>
<path style="fill:#FF5440;" d="M183.887,0c5.687,0,10.302,18.451,10.302,41.207v316.266c0,22.757-4.615,41.207-10.302,41.207
	c-22.757,0-41.207-18.451-41.207-41.207V41.207C142.68,18.451,161.131,0,183.887,0z"/>
<path style="fill:#E0230D;" d="M183.887,429.586V512c22.757,0,41.207-18.451,41.207-41.207
	C225.095,448.036,206.644,429.586,183.887,429.586z"/>
<path style="fill:#FF5440;" d="M183.887,429.586c5.687,0,10.302,18.451,10.302,41.207c0,22.757-4.615,41.207-10.302,41.207
	c-22.757,0-41.207-18.451-41.207-41.207C142.68,448.036,161.131,429.586,183.887,429.586z"/>
<path style="fill:#E0230D;" d="M328.113,0v398.68c22.757,0,41.207-18.451,41.207-41.207V41.207C369.32,18.451,350.869,0,328.113,0z"
	/>
<path style="fill:#FF5440;" d="M328.113,0c5.687,0,10.302,18.451,10.302,41.207v316.266c0,22.757-4.615,41.207-10.302,41.207
	c-22.757,0-41.207-18.451-41.207-41.207V41.207C286.905,18.451,305.356,0,328.113,0z"/>
<path style="fill:#E0230D;" d="M328.113,429.586V512c22.757,0,41.207-18.451,41.207-41.207
	C369.32,448.036,350.869,429.586,328.113,429.586z"/>
<path style="fill:#FF5440;" d="M328.113,429.586c5.687,0,10.302,18.451,10.302,41.207c0,22.757-4.615,41.207-10.302,41.207
	c-22.757,0-41.207-18.451-41.207-41.207C286.905,448.036,305.356,429.586,328.113,429.586z"/>
<g>
</g>
<g>
</g>
<g>
</g>
<g>
</g>
<g>
</g>
<g>
</g>
<g>
</g>
<g>
</g>
<g>
</g>
<g>
</g>
<g>
</g>
<g>
</g>
<g>
</g>
<g>
</g>
<g>
</g>
</svg>
